<?xml version="1.0" standalone="no"?>
<svg xmlns="http://www.w3.org/2000/svg" viewBox="0 0 111.072 36" width="111.072" height="36"><g fill="#7df7ff" color="#7df7ff" transform="translate(0 6.018018018018019) scale(0.2522523)"><svg width="111.0" height="95.0" x="0.0" y="0.0" viewBox="0 0 111 95"><g><g><path fill="currentColor" d="M104.343,59.979h-0.009c4.685-6.157,7.313-13.35,7.16-20.989C111.063,17.007,87.805-0.362,59.553,0.194    C31.301,0.749,8.751,19.021,9.183,40.999c0.008,0.403,0.023,0.804,0.048,1.204l1.382-0.889c-0.006-0.122,7.458-3.969,7.458-4.091    c0-15.986,23.184-31.354,41.478-31.354c16.493,0,44.731,9.461,44.731,33.198c-0.001,7.173-4.12,14.362-8.574,20.141    c-3.728,5.777,0.721,18.79,0.721,18.79l-14.634-7.79c-3.827,1.192-9.75,1.75-11.375,2.209c-1.959,4.583-5.001,7.155-5.001,7.155    c5.152-0.36,9.128-1.237,13.731-2.69l25.925,11.143C105.072,88.024,96.293,70.293,104.343,59.979z M35.457,36.076    C16.445,35.702,0.795,47.391,0.504,62.185c-0.103,5.14,1.667,9.98,4.817,14.123H5.316c5.416,6.94-0.491,18.873-0.491,18.873    l17.446-7.498c3.76,1.187,7.846,1.876,12.127,1.961c19.012,0.374,34.662-11.314,34.954-26.108    C69.644,48.745,54.469,36.45,35.457,36.076z"></path></g></g></svg></g><path fill="#6183ff" fill-rule="nonzero" d="M0.62 17.74L0.62 17.74Q0.17 17.74 0 17.71L0 17.71Q0.17 16.32 1.48 10.64Q2.78 4.97 2.78 3.46L2.78 3.46Q2.78 3.17 2.45 2.70Q2.11 2.23 1.78 1.92L1.78 1.92L1.46 1.58L1.54 1.20Q4.82 0.58 8.50 0.58L8.50 0.58Q12.91 0.58 12.91 4.06L12.91 4.06Q12.91 5.76 12.06 7.16Q11.21 8.57 9.41 9.36L9.41 9.36Q10.75 13.85 11.71 15.17L11.71 15.17Q12.14 15.72 12.38 15.72L12.38 15.72Q12.82 15.72 13.73 15.29L13.73 15.29L14.02 15.14L14.57 16.03Q13.68 16.85 12.52 17.38Q11.35 17.90 10.33 17.90Q9.31 17.90 8.65 17.03Q7.99 16.15 7.45 14.45Q6.91 12.74 6.36 10.08L6.36 10.08Q5.59 10.13 5.18 10.13L5.18 10.13Q3.96 15.38 3.84 17.23L3.84 17.23Q2.81 17.74 0.62 17.74ZM5.54 8.50L6.12 8.50Q7.56 8.50 8.39 7.21Q9.22 5.93 9.22 4.15L9.22 4.15Q9.22 3.22 8.88 2.64Q8.54 2.06 7.87 2.06L7.87 2.06Q7.58 2.06 7.19 2.15Q6.79 2.23 6.79 2.26L6.79 2.26Q6.41 4.73 5.54 8.50L5.54 8.50ZM22.01 7.68L22.01 7.68Q22.06 7.63 22.27 7.06L22.27 7.06Q23.40 7.06 25.30 7.73L25.30 7.73Q24.70 9.72 24.34 11.89Q23.98 14.06 23.98 14.99Q23.98 15.91 24.17 15.91L24.17 15.91Q24.31 15.91 25.22 15.46L25.22 15.46L25.51 15.31L25.94 16.15Q25.73 16.34 25.38 16.63Q25.03 16.92 24.07 17.41Q23.11 17.90 22.34 17.90L22.34 17.90Q20.86 17.90 20.62 16.56L20.62 16.56Q19.08 17.90 17.84 17.90Q16.61 17.90 15.76 16.94Q14.90 15.98 14.90 13.92L14.90 13.92Q14.90 10.70 16.22 8.84Q17.54 6.98 19.42 6.98L19.42 6.98Q20.76 6.98 22.01 7.68ZM19.27 15.86L19.27 15.86Q19.85 15.86 20.57 15.41L20.57 15.41Q20.74 12.02 21.70 8.71L21.70 8.71Q20.98 8.40 20.47 8.40L20.47 8.40Q19.61 8.40 19.00 10.09Q18.38 11.78 18.38 13.82Q18.38 15.86 19.27 15.86ZM33.50 14.47L33.50 14.47Q33.50 15.98 32.17 16.94Q30.84 17.90 29.14 17.90Q27.43 17.90 26.44 17.18Q25.44 16.46 25.44 15.91L25.44 15.91Q25.44 15.58 26.28 14.82Q27.12 14.06 27.70 13.90L27.70 13.90Q28.90 14.78 29.66 16.70L29.66 16.70Q30.55 16.63 30.55 15.86L30.55 15.86Q30.55 14.76 28.61 12.73Q26.66 10.70 26.66 9.50Q26.66 8.30 27.74 7.64Q28.82 6.98 30.35 6.98Q31.87 6.98 32.64 7.52Q33.41 8.06 33.41 8.99Q33.41 9.91 31.94 11.54L31.94 11.54Q32.11 11.71 32.38 11.99Q32.64 12.26 33.07 13.03Q33.50 13.80 33.50 14.47ZM31.20 10.70Q32.21 9.84 32.21 9Q32.21 8.16 31.06 8.16L31.06 8.16Q30.50 8.16 30.14 8.39Q29.78 8.62 29.78 8.90L29.78 8.90Q29.78 9.43 30.84 10.39L30.84 10.39L31.20 10.70ZM40.13 8.18L40.13 8.18Q39.17 8.18 38.59 9.78Q38.02 11.38 38.02 13.20L38.02 13.20Q38.02 16.08 39.79 16.08L39.79 16.08Q40.37 16.08 41.02 15.80Q41.66 15.53 42.05 15.26L42.05 15.26L42.41 14.98L42.96 15.72Q42.77 15.98 42.19 16.42Q41.62 16.85 41.11 17.14Q40.61 17.42 39.82 17.66Q39.02 17.90 38.26 17.90L38.26 17.90Q36.38 17.90 35.45 16.68Q34.51 15.46 34.51 13.39L34.51 13.39Q34.51 10.54 36.08 8.76Q37.66 6.98 40.13 6.98L40.13 6.98Q41.74 6.98 42.68 7.72Q43.63 8.45 43.63 9.52Q43.63 10.58 42.96 11.35L42.96 11.35Q42.36 11.35 41.57 11.09Q40.78 10.82 40.37 10.44L40.37 10.44L40.73 8.33Q40.51 8.18 40.13 8.18ZM46.94 1.78L46.94 1.78Q46.94 0.98 46.80 0.65L46.80 0.65Q48.67 0 50.33 0L50.33 0Q50.54 0.22 50.54 1.10L50.54 1.10Q50.54 2.69 49.20 8.40L49.20 8.40Q51.14 6.98 52.61 6.98L52.61 6.98Q53.52 6.98 53.99 7.56Q54.46 8.14 54.46 9.08Q54.46 10.03 53.90 12.18Q53.35 14.33 53.35 15.12Q53.35 15.91 53.54 15.91Q53.74 15.91 54.55 15.48L54.55 15.48L54.84 15.34L55.27 16.18Q55.06 16.37 54.70 16.66Q54.34 16.94 53.38 17.42Q52.42 17.90 51.61 17.90Q50.81 17.90 50.33 17.39Q49.85 16.87 49.85 16.00Q49.85 15.12 50.39 12.80Q50.93 10.49 50.93 9.88Q50.93 9.26 50.42 9.26L50.42 9.26Q49.80 9.26 48.86 9.79L48.86 9.79Q47.54 15.60 47.54 17.33L47.54 17.33Q46.54 17.71 44.11 17.71L44.11 17.71Q44.09 17.30 44.09 16.99L44.09 16.99Q44.09 15.96 45.52 9.94Q46.94 3.91 46.94 1.78ZM63.19 7.68L63.19 7.68Q63.24 7.63 63.46 7.06L63.46 7.06Q64.58 7.06 66.48 7.73L66.48 7.73Q65.88 9.72 65.52 11.89Q65.16 14.06 65.16 14.99Q65.16 15.91 65.35 15.91L65.35 15.91Q65.50 15.91 66.41 15.46L66.41 15.46L66.70 15.31L67.13 16.15Q66.91 16.34 66.56 16.63Q66.22 16.92 65.26 17.41Q64.30 17.90 63.53 17.90L63.53 17.90Q62.04 17.90 61.80 16.56L61.80 16.56Q60.26 17.90 59.03 17.90Q57.79 17.90 56.94 16.94Q56.09 15.98 56.09 13.92L56.09 13.92Q56.09 10.70 57.41 8.84Q58.73 6.98 60.60 6.98L60.60 6.98Q61.94 6.98 63.19 7.68ZM60.46 15.86L60.46 15.86Q61.03 15.86 61.75 15.41L61.75 15.41Q61.92 12.02 62.88 8.71L62.88 8.71Q62.16 8.40 61.66 8.40L61.66 8.40Q60.79 8.40 60.18 10.09Q59.57 11.78 59.57 13.82Q59.57 15.86 60.46 15.86ZM72.74 7.27L75.07 7.27Q75.02 7.87 74.66 8.66L74.66 8.66Q73.75 8.57 72.94 8.57L72.94 8.57L72.50 8.57Q71.40 13.92 71.40 15.24L71.40 15.24Q71.40 15.94 71.70 15.94Q72.00 15.94 73.30 15.34L73.30 15.34L73.73 16.13Q71.59 17.90 69.77 17.90L69.77 17.90Q68.93 17.90 68.39 17.38Q67.85 16.85 67.85 15.97Q67.85 15.10 68.05 13.99Q68.26 12.89 68.62 11.29Q68.98 9.70 69.14 8.71L69.14 8.71Q68.26 8.78 67.82 8.86L67.82 8.86Q67.78 8.57 67.78 8.08Q67.78 7.58 67.85 7.27L67.85 7.27L69.36 7.27Q69.55 5.98 69.55 4.82L69.55 4.82L69.53 4.08L69.53 4.01Q71.40 3.36 73.06 3.36L73.06 3.36Q73.15 3.84 73.15 4.56Q73.15 5.28 72.74 7.27L72.74 7.27Z" transform="translate(36, 9.048)"></path></svg>